{"title":"Everywhen (2014) MPEG-4-HE AAC-LC 5.1 x264-NLU002","uid":9951673,"size":933151998,"categoryP":"video","categoryS":"movies","magnet":"?xt=urn:btih:9e41588fa106fd6f340329ca452029a6abde5624&amp;dn=Everywhen+%282014%29+MPEG-4-HE+AAC-LC+5.1+x264-NLU002&amp;tr=udp%3A%2F%2Ftracker.openbittorrent.com%3A80&amp;tr=udp%3A%2F%2Fopen.demonii.com%3A1337&amp;tr=udp%3A%2F%2Ftracker.coppersurfer.tk%3A6969&amp;tr=udp%3A%2F%2Fexodus.desync.com%3A6969","seeders":1,"leechers":0,"uploader":"NLUPPER002","files":-1,"time":1397407399,"description":"Everywhen (2014) MPEG-4-HE AAC-LC 5.1 x264-NLU002\n.\nRelease Date: 04-2014\nRelease info: http://www.bol.com/nl/p/everywhen/9200000025474246/?Referrer=ADVNLBES0020109200000025474246B\n.\n[URL=https://imageshack.com/i/gvxu4dj][IMG]http://imagizer.imageshack.us/v2/xq90/607/xu4d.jpg[/IMG][/URL]\n.\n70 min  -  Sci-Fi | Thriller  -  2014 (USA) \n. &lt;a href=&quot;\nhttp://www.imdb.com/title/tt2715556/&quot; rel=&quot;nofollow&quot; target=&quot;_NEW&quot;&gt;\nhttp://www.imdb.com/title/tt2715556/&lt;/a&gt;\n. &lt;a href=&quot;\nhttp://www.moviemeter.nl/film/97408&quot; rel=&quot;nofollow&quot; target=&quot;_NEW&quot;&gt;\nhttp://www.moviemeter.nl/film/97408&lt;/a&gt;\n.\nPLOT\n.\nA boy must fight his way from an alternate reality, back to his own, to save his suicidal 5-year old brother; when 3 billion people are reported missing.\n.\nSource: RETAIL DVD\nFormat: MP4\nAudio: English 5.1\nRetail Subtitles: Dutch. HARDCODED Yellow\n\n.\nEnjoy PAL DVDR by NLU002\n.\nFormat                                   : MPEG-4\nFormat profile                           : Base Media / Version 2\nCodec ID                                 : mp42\nFile size                                : 890 MiB\nDuration                                 : 1h 2mn\nOverall bit rate mode                    : Variable\nOverall bit rate                         : 1 996 Kbps\nMovie name                               : Everywhen (2014) MPEG-4-HE AAC-LC 5.1 x264-NLU002\nWriting application                      : TMPGEnc Video Mastering Works 5 Version. 5.4.2.103\nComment                                  : Enjoy DVDRip from NLU002\n\nVideo\nID                                       : 2\nFormat                                   : AVC\nFormat/Info                              : Advanced Video Codec\nFormat profile                           : &lt;a class=&quot;__cf_email__&quot; href=&quot;/cdn-cgi/l/email-protection&quot; data-cfemail=&quot;470f2e202f070b746977&quot;&gt;[email&amp;#160;protected]&lt;/a&gt;&lt;script cf-hash='f9e31' type=&quot;text/javascript&quot;&gt;\n/* &lt;![CDATA[ */!function(){try{var t=&quot;currentScript&quot;in document?document.currentScript:function(){for(var t=document.getElementsByTagName(&quot;script&quot;),e=t.length;e--;)if(t[e].getAttribute(&quot;cf-hash&quot;))return t[e]}();if(t&amp;&amp;t.previousSibling){var e,r,n,i,c=t.previousSibling,a=c.getAttribute(&quot;data-cfemail&quot;);if(a){for(e=&quot;&quot;,r=parseInt(a.substr(0,2),16),n=2;a.length-n;n+=2)i=parseInt(a.substr(n,2),16)^r,e+=String.fromCharCode(i);e=document.createTextNode(e),c.parentNode.replaceChild(e,c)}}}catch(u){}}();/* ]]&gt; */&lt;/script&gt;\nFormat settings, CABAC                   : Yes\nFormat settings, ReFrames                : 5 frames\nCodec ID                                 : avc1\nCodec ID/Info                            : Advanced Video Coding\nDuration                                 : 1h 2mn\nBit rate mode                            : Variable\nBit rate                                 : 1 680 Kbps\nWidth                                    : 720 pixels\nHeight                                   : 576 pixels\nDisplay aspect ratio                     : 16:9\nFrame rate mode                          : Constant\nFrame rate                               : 25.000 fps\nStandard                                 : NTSC\nColor space                              : YUV\nChroma subsampling                       : 4:2:0\nBit depth                                : 8 bits\nScan type                                : Progressive\nBits/(Pixel*Frame)                       : 0.162\nStream size                              : 718 MiB (81%)\nWriting library                          : x264 core 136\nEncoding settings                        : cabac=1 / ref=5 / deblock=1:0:0 / analyse=0x3:0x113 / me=hex / subme=7 / psy=1 / psy_rd=1.00:0.00 / mixed_ref=1 / me_range=16 / chroma_me=1 / trellis=1 / 8x8dct=1 / cqm=2 / deadzone=21,11 / fast_pskip=1 / chroma_qp_offset=-4 / threads=12 / lookahead_threads=2 / sliced_threads=0 / slices=1 / nr=0 / decimate=1 / interlaced=0 / bluray_compat=0 / constrained_intra=0 / bframes=3 / b_pyramid=0 / b_adapt=1 / b_bias=0 / direct=1 / weightb=1 / open_gop=0 / weightp=1 / keyint=250 / keyint_min=25 / scenecut=40 / intra_refresh=0 / rc_lookahead=40 / rc=2pass / mbtree=1 / bitrate=1680 / ratetol=1.0 / qcomp=0.60 / qpmin=5 / qpmax=69 / qpstep=4 / cplxblur=20.0 / qblur=0.5 / vbv_maxrate=1680 / vbv_bufsize=1680 / nal_hrd=vbr / ip_ratio=1.40 / aq=1:1.00\nColor primaries                          : BT.601 NTSC\nTransfer characteristics                 : BT.601\nMatrix coefficients                      : BT.601\n\nAudio\nID                                       : 1\nFormat                                   : AAC\nFormat/Info                              : Advanced Audio Codec\nFormat profile                           : HE-AAC / LC\nCodec ID                                 : 40\nDuration                                 : 1h 2mn\nBit rate mode                            : Variable\nBit rate                                 : 384 Kbps\nMaximum bit rate                         : 720 Kbps\nChannel(s)                               : 2 channels\nChannel(s)_Original                      : 6 channels\nChannel positions                        : Front: L C R, Side: L R, LFE\nSampling rate                            : 48.0 KHz / 24.0 KHz\nCompression mode                         : Lossy\nStream size                              : 171 MiB (19%)\n","torrent":{"xt":"urn:btih:9e41588fa106fd6f340329ca452029a6abde5624","amp;dn":"Everywhen+%282014%29+MPEG-4-HE+AAC-LC+5.1+x264-NLU002","amp;tr":["udp%3A%2F%2Ftracker.openbittorrent.com%3A80","udp%3A%2F%2Fopen.demonii.com%3A1337","udp%3A%2F%2Ftracker.coppersurfer.tk%3A6969","udp%3A%2F%2Fexodus.desync.com%3A6969"],"infoHash":"9e41588fa106fd6f340329ca452029a6abde5624","infoHashBuffer":{"type":"Buffer","data":[158,65,88,143,161,6,253,111,52,3,41,202,69,32,41,166,171,222,86,36]},"announce":[],"urlList":[]}}